<svg xmlns="http://www.w3.org/2000/svg" xmlns:xlink="http://www.w3.org/1999/xlink" width="900" zoomAndPan="magnify" viewBox="0 0 675 112.499997" height="150" preserveAspectRatio="xMidYMid meet" version="1.0"><defs><g/><clipPath id="a0df58458d"><path d="M 1.492188 0 L 673.503906 0 L 673.503906 112.003906 L 1.492188 112.003906 Z M 1.492188 0 " clip-rule="nonzero"/></clipPath><radialGradient gradientTransform="matrix(1, 0, 0, 1, 1.493373, 0)" gradientUnits="userSpaceOnUse" r="340.641413" cx="336.006627" id="5e820adb2b" cy="56.001105" fx="336.006627" fy="56.001105"><stop stop-opacity="1" stop-color="rgb(0%, 4.690552%, 55.989075%)" offset="0"/><stop stop-opacity="1" stop-color="rgb(0%, 4.672241%, 55.770874%)" offset="0.00390625"/><stop stop-opacity="1" stop-color="rgb(0%, 4.653931%, 55.551147%)" offset="0.0078125"/><stop stop-opacity="1" stop-color="rgb(0%, 4.63562%, 55.331421%)" offset="0.0117188"/><stop stop-opacity="1" stop-color="rgb(0%, 4.61731%, 55.11322%)" offset="0.015625"/><stop stop-opacity="1" stop-color="rgb(0%, 4.598999%, 54.893494%)" offset="0.0195312"/><stop stop-opacity="1" stop-color="rgb(0%, 4.579163%, 54.675293%)" offset="0.0234375"/><stop stop-opacity="1" stop-color="rgb(0%, 4.560852%, 54.455566%)" offset="0.0273438"/><stop stop-opacity="1" stop-color="rgb(0%, 4.542542%, 54.23584%)" offset="0.03125"/><stop stop-opacity="1" stop-color="rgb(0%, 4.524231%, 54.017639%)" offset="0.0351562"/><stop stop-opacity="1" stop-color="rgb(0%, 4.50592%, 53.797913%)" offset="0.0390625"/><stop stop-opacity="1" stop-color="rgb(0%, 4.48761%, 53.578186%)" offset="0.0429688"/><stop stop-opacity="1" stop-color="rgb(0%, 4.469299%, 53.359985%)" offset="0.046875"/><stop stop-opacity="1" stop-color="rgb(0%, 4.450989%, 53.140259%)" offset="0.0507812"/><stop stop-opacity="1" stop-color="rgb(0%, 4.432678%, 52.922058%)" offset="0.0546875"/><stop stop-opacity="1" stop-color="rgb(0%, 4.414368%, 52.702332%)" offset="0.0585938"/><stop stop-opacity="1" stop-color="rgb(0%, 4.396057%, 52.482605%)" offset="0.0625"/><stop stop-opacity="1" stop-color="rgb(0%, 4.377747%, 52.264404%)" offset="0.0664062"/><stop stop-opacity="1" stop-color="rgb(0%, 4.359436%, 52.044678%)" offset="0.0703125"/><stop stop-opacity="1" stop-color="rgb(0%, 4.341125%, 51.824951%)" offset="0.0742188"/><stop stop-opacity="1" stop-color="rgb(0%, 4.322815%, 51.60675%)" offset="0.078125"/><stop stop-opacity="1" stop-color="rgb(0%, 4.304504%, 51.387024%)" offset="0.0820312"/><stop stop-opacity="1" stop-color="rgb(0%, 4.286194%, 51.168823%)" offset="0.0859375"/><stop stop-opacity="1" stop-color="rgb(0%, 4.267883%, 50.949097%)" offset="0.0898438"/><stop stop-opacity="1" stop-color="rgb(0%, 4.249573%, 50.72937%)" offset="0.09375"/><stop stop-opacity="1" stop-color="rgb(0%, 4.231262%, 50.511169%)" offset="0.0976562"/><stop stop-opacity="1" stop-color="rgb(0%, 4.212952%, 50.291443%)" offset="0.101562"/><stop stop-opacity="1" stop-color="rgb(0%, 4.194641%, 50.073242%)" offset="0.105469"/><stop stop-opacity="1" stop-color="rgb(0%, 4.176331%, 49.853516%)" offset="0.109375"/><stop stop-opacity="1" stop-color="rgb(0%, 4.15802%, 49.633789%)" offset="0.113281"/><stop stop-opacity="1" stop-color="rgb(0%, 4.139709%, 49.415588%)" offset="0.117188"/><stop stop-opacity="1" stop-color="rgb(0%, 4.121399%, 49.195862%)" offset="0.121094"/><stop stop-opacity="1" stop-color="rgb(0%, 4.103088%, 48.976135%)" offset="0.125"/><stop stop-opacity="1" stop-color="rgb(0%, 4.084778%, 48.757935%)" offset="0.128906"/><stop stop-opacity="1" stop-color="rgb(0%, 4.066467%, 48.538208%)" offset="0.132812"/><stop stop-opacity="1" stop-color="rgb(0%, 4.048157%, 48.320007%)" offset="0.136719"/><stop stop-opacity="1" stop-color="rgb(0%, 4.029846%, 48.100281%)" offset="0.140625"/><stop stop-opacity="1" stop-color="rgb(0%, 4.01001%, 47.880554%)" offset="0.144531"/><stop stop-opacity="1" stop-color="rgb(0%, 3.991699%, 47.662354%)" offset="0.148438"/><stop stop-opacity="1" stop-color="rgb(0%, 3.973389%, 47.442627%)" offset="0.152344"/><stop stop-opacity="1" stop-color="rgb(0%, 3.955078%, 47.224426%)" offset="0.15625"/><stop stop-opacity="1" stop-color="rgb(0%, 3.936768%, 47.0047%)" offset="0.160156"/><stop stop-opacity="1" stop-color="rgb(0%, 3.918457%, 46.784973%)" offset="0.164062"/><stop stop-opacity="1" stop-color="rgb(0%, 3.900146%, 46.566772%)" offset="0.167969"/><stop stop-opacity="1" stop-color="rgb(0%, 3.881836%, 46.347046%)" offset="0.171875"/><stop stop-opacity="1" stop-color="rgb(0%, 3.863525%, 46.127319%)" offset="0.175781"/><stop stop-opacity="1" stop-color="rgb(0%, 3.845215%, 45.909119%)" offset="0.179688"/><stop stop-opacity="1" stop-color="rgb(0%, 3.826904%, 45.689392%)" offset="0.183594"/><stop stop-opacity="1" stop-color="rgb(0%, 3.808594%, 45.471191%)" offset="0.1875"/><stop stop-opacity="1" stop-color="rgb(0%, 3.790283%, 45.251465%)" offset="0.191406"/><stop stop-opacity="1" stop-color="rgb(0%, 3.771973%, 45.031738%)" offset="0.195312"/><stop stop-opacity="1" stop-color="rgb(0%, 3.753662%, 44.813538%)" offset="0.199219"/><stop stop-opacity="1" stop-color="rgb(0%, 3.735352%, 44.593811%)" offset="0.203125"/><stop stop-opacity="1" stop-color="rgb(0%, 3.717041%, 44.37561%)" offset="0.207031"/><stop stop-opacity="1" stop-color="rgb(0%, 3.69873%, 44.155884%)" offset="0.210938"/><stop stop-opacity="1" stop-color="rgb(0%, 3.68042%, 43.936157%)" offset="0.214844"/><stop stop-opacity="1" stop-color="rgb(0%, 3.662109%, 43.717957%)" offset="0.21875"/><stop stop-opacity="1" stop-color="rgb(0%, 3.643799%, 43.49823%)" offset="0.222656"/><stop stop-opacity="1" stop-color="rgb(0%, 3.625488%, 43.278503%)" offset="0.226562"/><stop stop-opacity="1" stop-color="rgb(0%, 3.607178%, 43.060303%)" offset="0.230469"/><stop stop-opacity="1" stop-color="rgb(0%, 3.588867%, 42.840576%)" offset="0.234375"/><stop stop-opacity="1" stop-color="rgb(0%, 3.570557%, 42.622375%)" offset="0.238281"/><stop stop-opacity="1" stop-color="rgb(0%, 3.552246%, 42.402649%)" offset="0.242188"/><stop stop-opacity="1" stop-color="rgb(0%, 3.533936%, 42.182922%)" offset="0.246094"/><stop stop-opacity="1" stop-color="rgb(0%, 3.515625%, 41.964722%)" offset="0.25"/><stop stop-opacity="1" stop-color="rgb(0%, 3.497314%, 41.744995%)" offset="0.253906"/><stop stop-opacity="1" stop-color="rgb(0%, 3.479004%, 41.526794%)" offset="0.257812"/><stop stop-opacity="1" stop-color="rgb(0%, 3.460693%, 41.307068%)" offset="0.261719"/><stop stop-opacity="1" stop-color="rgb(0%, 3.440857%, 41.087341%)" offset="0.265625"/><stop stop-opacity="1" stop-color="rgb(0%, 3.422546%, 40.869141%)" offset="0.269531"/><stop stop-opacity="1" stop-color="rgb(0%, 3.404236%, 40.649414%)" offset="0.273438"/><stop stop-opacity="1" stop-color="rgb(0%, 3.385925%, 40.429688%)" offset="0.277344"/><stop stop-opacity="1" stop-color="rgb(0%, 3.367615%, 40.211487%)" offset="0.28125"/><stop stop-opacity="1" stop-color="rgb(0%, 3.349304%, 39.99176%)" offset="0.285156"/><stop stop-opacity="1" stop-color="rgb(0%, 3.330994%, 39.77356%)" offset="0.289062"/><stop stop-opacity="1" stop-color="rgb(0%, 3.312683%, 39.553833%)" offset="0.292969"/><stop stop-opacity="1" stop-color="rgb(0%, 3.294373%, 39.334106%)" offset="0.296875"/><stop stop-opacity="1" stop-color="rgb(0%, 3.276062%, 39.115906%)" offset="0.300781"/><stop stop-opacity="1" stop-color="rgb(0%, 3.257751%, 38.896179%)" offset="0.304688"/><stop stop-opacity="1" stop-color="rgb(0%, 3.239441%, 38.677979%)" offset="0.308594"/><stop stop-opacity="1" stop-color="rgb(0%, 3.22113%, 38.458252%)" offset="0.3125"/><stop stop-opacity="1" stop-color="rgb(0%, 3.20282%, 38.238525%)" offset="0.316406"/><stop stop-opacity="1" stop-color="rgb(0%, 3.184509%, 38.020325%)" offset="0.320312"/><stop stop-opacity="1" stop-color="rgb(0%, 3.166199%, 37.800598%)" offset="0.324219"/><stop stop-opacity="1" stop-color="rgb(0%, 3.147888%, 37.580872%)" offset="0.328125"/><stop stop-opacity="1" stop-color="rgb(0%, 3.129578%, 37.362671%)" offset="0.332031"/><stop stop-opacity="1" stop-color="rgb(0%, 3.111267%, 37.142944%)" offset="0.335938"/><stop stop-opacity="1" stop-color="rgb(0%, 3.092957%, 36.924744%)" offset="0.339844"/><stop stop-opacity="1" stop-color="rgb(0%, 3.074646%, 36.705017%)" offset="0.34375"/><stop stop-opacity="1" stop-color="rgb(0%, 3.056335%, 36.485291%)" offset="0.347656"/><stop stop-opacity="1" stop-color="rgb(0%, 3.038025%, 36.26709%)" offset="0.351562"/><stop stop-opacity="1" stop-color="rgb(0%, 3.019714%, 36.047363%)" offset="0.355469"/><stop stop-opacity="1" stop-color="rgb(0%, 3.001404%, 35.829163%)" offset="0.359375"/><stop stop-opacity="1" stop-color="rgb(0%, 2.983093%, 35.609436%)" offset="0.363281"/><stop stop-opacity="1" stop-color="rgb(0%, 2.964783%, 35.389709%)" offset="0.367188"/><stop stop-opacity="1" stop-color="rgb(0%, 2.946472%, 35.171509%)" offset="0.371094"/><stop stop-opacity="1" stop-color="rgb(0%, 2.928162%, 34.951782%)" offset="0.375"/><stop stop-opacity="1" stop-color="rgb(0%, 2.909851%, 34.732056%)" offset="0.378906"/><stop stop-opacity="1" stop-color="rgb(0%, 2.891541%, 34.513855%)" offset="0.382812"/><stop stop-opacity="1" stop-color="rgb(0%, 2.871704%, 34.294128%)" offset="0.386719"/><stop stop-opacity="1" stop-color="rgb(0%, 2.853394%, 34.075928%)" offset="0.390625"/><stop stop-opacity="1" stop-color="rgb(0%, 2.835083%, 33.856201%)" offset="0.394531"/><stop stop-opacity="1" stop-color="rgb(0%, 2.816772%, 33.636475%)" offset="0.398438"/><stop stop-opacity="1" stop-color="rgb(0%, 2.798462%, 33.418274%)" offset="0.402344"/><stop stop-opacity="1" stop-color="rgb(0%, 2.780151%, 33.198547%)" offset="0.40625"/><stop stop-opacity="1" stop-color="rgb(0%, 2.761841%, 32.980347%)" offset="0.410156"/><stop stop-opacity="1" stop-color="rgb(0%, 2.74353%, 32.76062%)" offset="0.414062"/><stop stop-opacity="1" stop-color="rgb(0%, 2.72522%, 32.540894%)" offset="0.417969"/><stop stop-opacity="1" stop-color="rgb(0%, 2.706909%, 32.322693%)" offset="0.421875"/><stop stop-opacity="1" stop-color="rgb(0%, 2.688599%, 32.102966%)" offset="0.425781"/><stop stop-opacity="1" stop-color="rgb(0%, 2.670288%, 31.88324%)" offset="0.429688"/><stop stop-opacity="1" stop-color="rgb(0%, 2.651978%, 31.665039%)" offset="0.433594"/><stop stop-opacity="1" stop-color="rgb(0%, 2.633667%, 31.445312%)" offset="0.4375"/><stop stop-opacity="1" stop-color="rgb(0%, 2.615356%, 31.227112%)" offset="0.441406"/><stop stop-opacity="1" stop-color="rgb(0%, 2.597046%, 31.007385%)" offset="0.445312"/><stop stop-opacity="1" stop-color="rgb(0%, 2.578735%, 30.787659%)" offset="0.449219"/><stop stop-opacity="1" stop-color="rgb(0%, 2.560425%, 30.569458%)" offset="0.453125"/><stop stop-opacity="1" stop-color="rgb(0%, 2.542114%, 30.349731%)" offset="0.457031"/><stop stop-opacity="1" stop-color="rgb(0%, 2.523804%, 30.131531%)" offset="0.460938"/><stop stop-opacity="1" stop-color="rgb(0%, 2.505493%, 29.911804%)" offset="0.464844"/><stop stop-opacity="1" stop-color="rgb(0%, 2.487183%, 29.692078%)" offset="0.46875"/><stop stop-opacity="1" stop-color="rgb(0%, 2.468872%, 29.473877%)" offset="0.472656"/><stop stop-opacity="1" stop-color="rgb(0%, 2.450562%, 29.25415%)" offset="0.476562"/><stop stop-opacity="1" stop-color="rgb(0%, 2.432251%, 29.034424%)" offset="0.480469"/><stop stop-opacity="1" stop-color="rgb(0%, 2.41394%, 28.816223%)" offset="0.484375"/><stop stop-opacity="1" stop-color="rgb(0%, 2.39563%, 28.596497%)" offset="0.488281"/><stop stop-opacity="1" stop-color="rgb(0%, 2.377319%, 28.378296%)" offset="0.492188"/><stop stop-opacity="1" stop-color="rgb(0%, 2.359009%, 28.158569%)" offset="0.496094"/><stop stop-opacity="1" stop-color="rgb(0%, 2.340698%, 27.938843%)" offset="0.5"/><stop stop-opacity="1" stop-color="rgb(0%, 2.322388%, 27.720642%)" offset="0.503906"/><stop stop-opacity="1" stop-color="rgb(0%, 2.304077%, 27.500916%)" offset="0.507812"/><stop stop-opacity="1" stop-color="rgb(0%, 2.284241%, 27.282715%)" offset="0.511719"/><stop stop-opacity="1" stop-color="rgb(0%, 2.26593%, 27.062988%)" offset="0.515625"/><stop stop-opacity="1" stop-color="rgb(0%, 2.24762%, 26.843262%)" offset="0.519531"/><stop stop-opacity="1" stop-color="rgb(0%, 2.229309%, 26.625061%)" offset="0.523438"/><stop stop-opacity="1" stop-color="rgb(0%, 2.210999%, 26.405334%)" offset="0.527344"/><stop stop-opacity="1" stop-color="rgb(0%, 2.192688%, 26.185608%)" offset="0.53125"/><stop stop-opacity="1" stop-color="rgb(0%, 2.174377%, 25.967407%)" offset="0.535156"/><stop stop-opacity="1" stop-color="rgb(0%, 2.156067%, 25.747681%)" offset="0.539062"/><stop stop-opacity="1" stop-color="rgb(0%, 2.137756%, 25.52948%)" offset="0.542969"/><stop stop-opacity="1" stop-color="rgb(0%, 2.119446%, 25.309753%)" offset="0.546875"/><stop stop-opacity="1" stop-color="rgb(0%, 2.101135%, 25.090027%)" offset="0.550781"/><stop stop-opacity="1" stop-color="rgb(0%, 2.082825%, 24.871826%)" offset="0.554688"/><stop stop-opacity="1" stop-color="rgb(0%, 2.064514%, 24.6521%)" offset="0.558594"/><stop stop-opacity="1" stop-color="rgb(0%, 2.046204%, 24.432373%)" offset="0.5625"/><stop stop-opacity="1" stop-color="rgb(0%, 2.027893%, 24.214172%)" offset="0.566406"/><stop stop-opacity="1" stop-color="rgb(0%, 2.009583%, 23.994446%)" offset="0.570312"/><stop stop-opacity="1" stop-color="rgb(0%, 1.991272%, 23.776245%)" offset="0.574219"/><stop stop-opacity="1" stop-color="rgb(0%, 1.972961%, 23.556519%)" offset="0.578125"/><stop stop-opacity="1" stop-color="rgb(0%, 1.954651%, 23.336792%)" offset="0.582031"/><stop stop-opacity="1" stop-color="rgb(0%, 1.93634%, 23.118591%)" offset="0.585938"/><stop stop-opacity="1" stop-color="rgb(0%, 1.91803%, 22.898865%)" offset="0.589844"/><stop stop-opacity="1" stop-color="rgb(0%, 1.899719%, 22.680664%)" offset="0.59375"/><stop stop-opacity="1" stop-color="rgb(0%, 1.881409%, 22.460938%)" offset="0.597656"/><stop stop-opacity="1" stop-color="rgb(0%, 1.863098%, 22.241211%)" offset="0.601562"/><stop stop-opacity="1" stop-color="rgb(0%, 1.844788%, 22.02301%)" offset="0.605469"/><stop stop-opacity="1" stop-color="rgb(0%, 1.826477%, 21.803284%)" offset="0.609375"/><stop stop-opacity="1" stop-color="rgb(0%, 1.808167%, 21.583557%)" offset="0.613281"/><stop stop-opacity="1" stop-color="rgb(0%, 1.789856%, 21.365356%)" offset="0.617188"/><stop stop-opacity="1" stop-color="rgb(0%, 1.771545%, 21.14563%)" offset="0.621094"/><stop stop-opacity="1" stop-color="rgb(0%, 1.753235%, 20.927429%)" offset="0.625"/><stop stop-opacity="1" stop-color="rgb(0%, 1.734924%, 20.707703%)" offset="0.628906"/><stop stop-opacity="1" stop-color="rgb(0%, 1.715088%, 20.487976%)" offset="0.632812"/><stop stop-opacity="1" stop-color="rgb(0%, 1.696777%, 20.269775%)" offset="0.636719"/><stop stop-opacity="1" stop-color="rgb(0%, 1.678467%, 20.050049%)" offset="0.640625"/><stop stop-opacity="1" stop-color="rgb(0%, 1.660156%, 19.831848%)" offset="0.644531"/><stop stop-opacity="1" stop-color="rgb(0%, 1.641846%, 19.612122%)" offset="0.648438"/><stop stop-opacity="1" stop-color="rgb(0%, 1.623535%, 19.392395%)" offset="0.652344"/><stop stop-opacity="1" stop-color="rgb(0%, 1.605225%, 19.174194%)" offset="0.65625"/><stop stop-opacity="1" stop-color="rgb(0%, 1.586914%, 18.954468%)" offset="0.660156"/><stop stop-opacity="1" stop-color="rgb(0%, 1.568604%, 18.734741%)" offset="0.664062"/><stop stop-opacity="1" stop-color="rgb(0%, 1.550293%, 18.516541%)" offset="0.667969"/><stop stop-opacity="1" stop-color="rgb(0%, 1.531982%, 18.296814%)" offset="0.671875"/><stop stop-opacity="1" stop-color="rgb(0%, 1.513672%, 18.078613%)" offset="0.675781"/><stop stop-opacity="1" stop-color="rgb(0%, 1.495361%, 17.858887%)" offset="0.679688"/><stop stop-opacity="1" stop-color="rgb(0%, 1.477051%, 17.63916%)" offset="0.683594"/><stop stop-opacity="1" stop-color="rgb(0%, 1.45874%, 17.420959%)" offset="0.6875"/><stop stop-opacity="1" stop-color="rgb(0%, 1.44043%, 17.201233%)" offset="0.691406"/><stop stop-opacity="1" stop-color="rgb(0%, 1.422119%, 16.983032%)" offset="0.695312"/><stop stop-opacity="1" stop-color="rgb(0%, 1.403809%, 16.763306%)" offset="0.699219"/><stop stop-opacity="1" stop-color="rgb(0%, 1.385498%, 16.543579%)" offset="0.703125"/><stop stop-opacity="1" stop-color="rgb(0%, 1.367188%, 16.325378%)" offset="0.707031"/><stop stop-opacity="1" stop-color="rgb(0%, 1.348877%, 16.105652%)" offset="0.710938"/><stop stop-opacity="1" stop-color="rgb(0%, 1.330566%, 15.885925%)" offset="0.714844"/><stop stop-opacity="1" stop-color="rgb(0%, 1.312256%, 15.667725%)" offset="0.71875"/><stop stop-opacity="1" stop-color="rgb(0%, 1.293945%, 15.447998%)" offset="0.722656"/><stop stop-opacity="1" stop-color="rgb(0%, 1.275635%, 15.229797%)" offset="0.726562"/><stop stop-opacity="1" stop-color="rgb(0%, 1.257324%, 15.010071%)" offset="0.730469"/><stop stop-opacity="1" stop-color="rgb(0%, 1.239014%, 14.790344%)" offset="0.734375"/><stop stop-opacity="1" stop-color="rgb(0%, 1.220703%, 14.572144%)" offset="0.738281"/><stop stop-opacity="1" stop-color="rgb(0%, 1.202393%, 14.352417%)" offset="0.742188"/><stop stop-opacity="1" stop-color="rgb(0%, 1.184082%, 14.134216%)" offset="0.746094"/><stop stop-opacity="1" stop-color="rgb(0%, 1.165771%, 13.91449%)" offset="0.75"/><stop stop-opacity="1" stop-color="rgb(0%, 1.145935%, 13.694763%)" offset="0.753906"/><stop stop-opacity="1" stop-color="rgb(0%, 1.127625%, 13.476562%)" offset="0.757812"/><stop stop-opacity="1" stop-color="rgb(0%, 1.109314%, 13.256836%)" offset="0.761719"/><stop stop-opacity="1" stop-color="rgb(0%, 1.091003%, 13.037109%)" offset="0.765625"/><stop stop-opacity="1" stop-color="rgb(0%, 1.072693%, 12.818909%)" offset="0.769531"/><stop stop-opacity="1" stop-color="rgb(0%, 1.054382%, 12.599182%)" offset="0.773438"/><stop stop-opacity="1" stop-color="rgb(0%, 1.036072%, 12.380981%)" offset="0.777344"/><stop stop-opacity="1" stop-color="rgb(0%, 1.017761%, 12.161255%)" offset="0.78125"/><stop stop-opacity="1" stop-color="rgb(0%, 0.999451%, 11.941528%)" offset="0.785156"/><stop stop-opacity="1" stop-color="rgb(0%, 0.98114%, 11.723328%)" offset="0.789062"/><stop stop-opacity="1" stop-color="rgb(0%, 0.96283%, 11.503601%)" offset="0.792969"/><stop stop-opacity="1" stop-color="rgb(0%, 0.944519%, 11.2854%)" offset="0.796875"/><stop stop-opacity="1" stop-color="rgb(0%, 0.926208%, 11.065674%)" offset="0.800781"/><stop stop-opacity="1" stop-color="rgb(0%, 0.907898%, 10.845947%)" offset="0.804688"/><stop stop-opacity="1" stop-color="rgb(0%, 0.889587%, 10.627747%)" offset="0.808594"/><stop stop-opacity="1" stop-color="rgb(0%, 0.871277%, 10.40802%)" offset="0.8125"/><stop stop-opacity="1" stop-color="rgb(0%, 0.852966%, 10.188293%)" offset="0.816406"/><stop stop-opacity="1" stop-color="rgb(0%, 0.834656%, 9.970093%)" offset="0.820312"/><stop stop-opacity="1" stop-color="rgb(0%, 0.816345%, 9.750366%)" offset="0.824219"/><stop stop-opacity="1" stop-color="rgb(0%, 0.798035%, 9.532166%)" offset="0.828125"/><stop stop-opacity="1" stop-color="rgb(0%, 0.779724%, 9.312439%)" offset="0.832031"/><stop stop-opacity="1" stop-color="rgb(0%, 0.761414%, 9.092712%)" offset="0.835938"/><stop stop-opacity="1" stop-color="rgb(0%, 0.743103%, 8.874512%)" offset="0.839844"/><stop stop-opacity="1" stop-color="rgb(0%, 0.724792%, 8.654785%)" offset="0.84375"/><stop stop-opacity="1" stop-color="rgb(0%, 0.706482%, 8.436584%)" offset="0.847656"/><stop stop-opacity="1" stop-color="rgb(0%, 0.688171%, 8.216858%)" offset="0.851562"/><stop stop-opacity="1" stop-color="rgb(0%, 0.669861%, 7.997131%)" offset="0.855469"/><stop stop-opacity="1" stop-color="rgb(0%, 0.65155%, 7.778931%)" offset="0.859375"/><stop stop-opacity="1" stop-color="rgb(0%, 0.63324%, 7.559204%)" offset="0.863281"/><stop stop-opacity="1" stop-color="rgb(0%, 0.614929%, 7.339478%)" offset="0.867188"/><stop stop-opacity="1" stop-color="rgb(0%, 0.596619%, 7.121277%)" offset="0.871094"/><stop stop-opacity="1" stop-color="rgb(0%, 0.576782%, 6.90155%)" offset="0.875"/><stop stop-opacity="1" stop-color="rgb(0%, 0.558472%, 6.68335%)" offset="0.878906"/><stop stop-opacity="1" stop-color="rgb(0%, 0.540161%, 6.463623%)" offset="0.882812"/><stop stop-opacity="1" stop-color="rgb(0%, 0.521851%, 6.243896%)" offset="0.886719"/><stop stop-opacity="1" stop-color="rgb(0%, 0.50354%, 6.025696%)" offset="0.890625"/><stop stop-opacity="1" stop-color="rgb(0%, 0.485229%, 5.805969%)" offset="0.894531"/><stop stop-opacity="1" stop-color="rgb(0%, 0.466919%, 5.587769%)" offset="0.898438"/><stop stop-opacity="1" stop-color="rgb(0%, 0.448608%, 5.368042%)" offset="0.902344"/><stop stop-opacity="1" stop-color="rgb(0%, 0.430298%, 5.148315%)" offset="0.90625"/><stop stop-opacity="1" stop-color="rgb(0%, 0.411987%, 4.930115%)" offset="0.910156"/><stop stop-opacity="1" stop-color="rgb(0%, 0.393677%, 4.710388%)" offset="0.914062"/><stop stop-opacity="1" stop-color="rgb(0%, 0.375366%, 4.490662%)" offset="0.917969"/><stop stop-opacity="1" stop-color="rgb(0%, 0.357056%, 4.272461%)" offset="0.921875"/><stop stop-opacity="1" stop-color="rgb(0%, 0.338745%, 4.052734%)" offset="0.925781"/><stop stop-opacity="1" stop-color="rgb(0%, 0.320435%, 3.834534%)" offset="0.929688"/><stop stop-opacity="1" stop-color="rgb(0%, 0.302124%, 3.614807%)" offset="0.933594"/><stop stop-opacity="1" stop-color="rgb(0%, 0.283813%, 3.395081%)" offset="0.9375"/><stop stop-opacity="1" stop-color="rgb(0%, 0.265503%, 3.17688%)" offset="0.941406"/><stop stop-opacity="1" stop-color="rgb(0%, 0.247192%, 2.957153%)" offset="0.945312"/><stop stop-opacity="1" stop-color="rgb(0%, 0.228882%, 2.738953%)" offset="0.949219"/><stop stop-opacity="1" stop-color="rgb(0%, 0.210571%, 2.519226%)" offset="0.953125"/><stop stop-opacity="1" stop-color="rgb(0%, 0.192261%, 2.2995%)" offset="0.957031"/><stop stop-opacity="1" stop-color="rgb(0%, 0.17395%, 2.081299%)" offset="0.960938"/><stop stop-opacity="1" stop-color="rgb(0%, 0.15564%, 1.861572%)" offset="0.964844"/><stop stop-opacity="1" stop-color="rgb(0%, 0.137329%, 1.641846%)" offset="0.96875"/><stop stop-opacity="1" stop-color="rgb(0%, 0.119019%, 1.423645%)" offset="0.972656"/><stop stop-opacity="1" stop-color="rgb(0%, 0.100708%, 1.203918%)" offset="0.976562"/><stop stop-opacity="1" stop-color="rgb(0%, 0.0823975%, 0.985718%)" offset="0.980469"/><stop stop-opacity="1" stop-color="rgb(0%, 0.0640869%, 0.765991%)" offset="0.984375"/><stop stop-opacity="1" stop-color="rgb(0%, 0.0457764%, 0.546265%)" offset="0.988281"/><stop stop-opacity="1" stop-color="rgb(0%, 0.0274658%, 0.328064%)" offset="0.992188"/><stop stop-opacity="1" stop-color="rgb(0%, 0.00915527%, 0.108337%)" offset="0.996094"/><stop stop-opacity="1" stop-color="rgb(0%, 0%, 0%)" offset="1"/></radialGradient><clipPath id="84bfedd0a1"><path d="M 292.378906 8.148438 L 382.726562 8.148438 L 382.726562 103.722656 L 292.378906 103.722656 Z M 292.378906 8.148438 " clip-rule="nonzero"/></clipPath></defs><g clip-path="url(#a0df58458d)"><path fill="#ffffff" d="M 1.492188 0 L 673.507812 0 L 673.507812 112.003906 L 1.492188 112.003906 Z M 1.492188 0 " fill-opacity="1" fill-rule="nonzero"/><path fill="url(#5e820adb2b)" d="M 1.492188 0 L 1.492188 112.003906 L 673.507812 112.003906 L 673.507812 0 Z M 1.492188 0 " fill-rule="nonzero"/></g><path fill="#ffffff" d="M 348.691406 72.695312 L 348.691406 64.574219 C 348.691406 62.46875 348.847656 62.261719 351.601562 61.992188 L 351.601562 60.757812 L 340.164062 60.757812 L 340.164062 61.992188 C 344.371094 62.261719 344.535156 62.53125 344.535156 64.574219 L 344.535156 70.117188 C 344.535156 71.566406 343.996094 72.054688 343.132812 72.375 C 342.054688 72.808594 340.921875 73.019531 339.464844 73.019531 C 329.917969 73.019531 328.132812 64.566406 328.132812 59.351562 C 328.132812 52.835938 330.773438 46.003906 338.925781 46.003906 C 343.507812 46.003906 346.15625 48.046875 347.070312 52.730469 L 348.308594 52.730469 L 348.308594 46.222656 C 346.261719 45.257812 342.699219 44.554688 339.351562 44.554688 C 333.148438 44.554688 328.996094 46.542969 326.617188 49.613281 C 324.457031 52.410156 323.488281 55.746094 323.488281 60.054688 C 323.488281 65.382812 325.597656 69.640625 328.613281 71.785156 C 331.800781 73.992188 335.46875 74.476562 339.082031 74.476562 C 342 74.46875 346.042969 73.558594 348.691406 72.695312 Z M 348.691406 72.695312 " fill-opacity="1" fill-rule="nonzero"/><path fill="#ffffff" d="M 337.472656 20.53125 C 339.882812 20.53125 341.851562 18.566406 341.851562 16.160156 C 341.851562 13.753906 339.882812 11.789062 337.472656 11.789062 C 335.058594 11.789062 333.089844 13.753906 333.089844 16.160156 C 333.089844 18.566406 335.058594 20.53125 337.472656 20.53125 Z M 337.472656 12.691406 C 339.386719 12.691406 340.9375 14.25 340.9375 16.152344 C 340.9375 18.0625 339.378906 19.609375 337.472656 19.609375 C 335.554688 19.609375 334.003906 18.054688 334.003906 16.144531 C 334.003906 14.25 335.554688 12.691406 337.472656 12.691406 Z M 337.472656 12.691406 " fill-opacity="1" fill-rule="nonzero"/><g clip-path="url(#84bfedd0a1)"><path fill="#ffffff" d="M 382.710938 58.769531 L 382.632812 58.527344 C 382.589844 58.40625 382.5 58.125 375.332031 51.175781 L 375.042969 50.898438 L 365.105469 60.707031 L 344.945312 19.089844 C 345.304688 18.183594 345.503906 17.195312 345.503906 16.160156 C 345.503906 14.109375 344.71875 12.234375 343.4375 10.816406 C 343.238281 10.589844 343.019531 10.375 342.792969 10.171875 C 341.835938 9.320312 340.667969 8.695312 339.386719 8.382812 C 338.777344 8.234375 338.132812 8.148438 337.472656 8.148438 C 336.808594 8.148438 336.164062 8.226562 335.554688 8.382812 C 332.042969 9.242188 329.449219 12.40625 329.449219 16.160156 C 329.449219 17.261719 329.675781 18.316406 330.074219 19.261719 L 310.003906 60.707031 L 300.0625 50.898438 L 299.777344 51.175781 C 292.605469 58.125 292.511719 58.40625 292.476562 58.527344 L 292.398438 58.769531 L 304.90625 71.230469 L 299.304688 82.792969 L 299.234375 82.921875 L 299.347656 82.84375 L 305.683594 78.683594 L 307.9375 74.234375 L 337.550781 103.722656 L 367.167969 74.242188 L 369.425781 78.691406 L 375.863281 82.933594 L 370.199219 71.230469 L 382.535156 58.953125 Z M 337.472656 8.964844 C 341.445312 8.964844 344.675781 12.1875 344.675781 16.152344 C 344.675781 20.113281 341.453125 23.335938 337.480469 23.335938 L 337.472656 23.335938 C 333.5 23.335938 330.265625 20.113281 330.265625 16.152344 C 330.265625 12.1875 333.5 8.964844 337.472656 8.964844 Z M 337.550781 24.535156 C 338.847656 26.605469 343.253906 34.824219 346.199219 40.417969 L 346.269531 40.558594 L 351.070312 42.496094 L 361.898438 63.871094 L 337.550781 87.910156 L 313.191406 63.859375 L 324.027344 42.488281 L 328.828125 40.550781 L 328.898438 40.410156 C 331.84375 34.824219 336.25 26.613281 337.550781 24.535156 Z M 304.324219 69.492188 L 306.144531 67.675781 L 305.5625 67.09375 L 303.738281 68.910156 L 300.8125 66 L 304.183594 62.628906 L 303.601562 62.042969 L 300.230469 65.40625 L 296.867188 62.0625 L 298.695312 60.238281 L 298.113281 59.65625 L 296.28125 61.488281 L 293.40625 58.628906 C 294.289062 57.675781 297.703125 54.328125 300.054688 52.054688 L 309.621094 61.496094 L 305.28125 70.445312 Z M 307.757812 72.765625 L 307.6875 72.835938 L 307.484375 73.035156 L 307.574219 73.132812 L 307.320312 73.636719 L 305.039062 78.128906 L 301.273438 80.605469 L 305.507812 71.84375 L 305.890625 71.0625 L 310.230469 62.097656 L 310.613281 61.316406 L 330.527344 20.183594 C 331.816406 22.390625 334.144531 23.929688 336.835938 24.136719 C 336.214844 25.09375 335.039062 27.1875 332.558594 31.789062 C 330.582031 35.457031 328.621094 39.160156 328.226562 39.90625 L 323.4375 41.84375 L 312.574219 63.261719 L 312.191406 64.035156 Z M 363.796875 76.433594 L 361.878906 74.523438 L 361.296875 75.105469 L 363.214844 77.015625 L 359.851562 80.359375 L 356.390625 76.910156 L 355.816406 77.492188 L 359.277344 80.941406 L 356.339844 83.863281 L 354.433594 81.960938 L 353.859375 82.542969 L 355.757812 84.445312 L 352.394531 87.789062 L 348.933594 84.339844 L 348.359375 84.921875 L 351.808594 88.363281 L 348.882812 91.28125 L 346.976562 89.386719 L 346.402344 89.96875 L 348.300781 91.863281 L 344.9375 95.210938 L 341.488281 91.769531 L 340.902344 92.351562 L 344.34375 95.792969 L 341.417969 98.710938 L 339.527344 96.824219 L 338.953125 97.40625 L 340.84375 99.292969 L 337.558594 102.570312 L 334.167969 99.1875 L 335.964844 97.398438 L 335.378906 96.816406 L 333.585938 98.605469 L 330.660156 95.6875 L 334.003906 92.351562 L 333.421875 91.769531 L 330.074219 95.113281 L 326.710938 91.761719 L 328.515625 89.96875 L 327.933594 89.386719 L 326.136719 91.1875 L 323.203125 88.265625 L 326.554688 84.921875 L 325.972656 84.339844 L 322.617188 87.683594 L 319.265625 84.339844 L 321.066406 82.542969 L 320.484375 81.960938 L 318.679688 83.757812 L 315.753906 80.839844 L 319.117188 77.484375 L 318.53125 76.902344 L 315.144531 80.265625 L 311.78125 76.910156 L 313.601562 75.105469 L 313.019531 74.523438 L 311.195312 76.335938 L 308.320312 73.46875 L 308.425781 73.253906 L 311.632812 70.054688 L 311.050781 69.472656 L 309.621094 70.90625 L 312.800781 64.632812 L 337.539062 89.066406 L 362.28125 64.632812 L 365.671875 71.316406 L 363.832031 69.480469 L 363.25 70.066406 L 366.714844 73.523438 Z M 373.816406 80.605469 L 370.050781 78.128906 L 367.777344 73.636719 L 367.386719 72.863281 L 362.910156 64.027344 L 362.515625 63.253906 L 351.664062 41.84375 L 346.863281 39.90625 C 346.46875 39.160156 344.511719 35.457031 342.53125 31.789062 C 340.039062 27.175781 338.863281 25.074219 338.246094 24.128906 C 340.929688 23.867188 343.238281 22.285156 344.492188 20.035156 L 364.476562 61.316406 L 364.859375 62.097656 L 369.199219 71.0625 L 369.574219 71.84375 Z M 378.71875 61.585938 L 376.785156 59.65625 L 376.210938 60.238281 L 378.136719 62.167969 L 374.773438 65.511719 L 371.296875 62.042969 L 370.722656 62.628906 L 374.199219 66.09375 L 371.261719 69.011719 L 369.339844 67.09375 L 368.761719 67.675781 L 370.679688 69.585938 L 369.816406 70.4375 L 365.480469 61.480469 L 375.042969 52.035156 C 377.394531 54.3125 380.8125 57.664062 381.691406 58.613281 Z M 378.71875 61.585938 " fill-opacity="1" fill-rule="nonzero"/></g><g fill="#ffffff" fill-opacity="1"><g transform="translate(64.249608, 46.136112)"><g><path d="M 2.175781 0 L 10.53125 0 L 10.53125 -1.125 L 9.269531 -1.125 C 7.96875 -1.125 7.058594 -2.175781 7.058594 -3.933594 L 7.058594 -21.835938 L 7.265625 -21.835938 L 13.972656 0.421875 L 14.816406 0.421875 L 21.242188 -22.785156 L 21.242188 -2.070312 C 21.242188 -1.441406 20.960938 -1.125 20.292969 -1.125 L 17.765625 -1.125 L 17.765625 0 L 27.945312 0 L 27.945312 -1.125 L 25.417969 -1.125 C 24.75 -1.125 24.472656 -1.441406 24.472656 -2.070312 L 24.472656 -22.925781 C 24.472656 -23.59375 24.75 -23.875 25.417969 -23.875 L 27.945312 -23.875 L 27.945312 -24.996094 L 20.679688 -24.996094 L 15.34375 -5.652344 L 9.621094 -24.996094 L 2.175781 -24.996094 L 2.175781 -23.875 L 4.703125 -23.875 C 5.371094 -23.875 5.652344 -23.59375 5.652344 -22.925781 L 5.652344 -3.933594 C 5.652344 -2.175781 4.738281 -1.125 3.441406 -1.125 L 2.175781 -1.125 Z M 2.175781 0 "/></g></g></g><g fill="#ffffff" fill-opacity="1"><g transform="translate(93.668199, 46.136112)"><g><path d="M 4.773438 -8.003906 C 4.773438 -12.5 5.757812 -15.589844 8.707031 -15.589844 C 11.65625 -15.589844 12.640625 -12.5 12.640625 -8.003906 C 12.640625 -3.511719 11.65625 -0.421875 8.707031 -0.421875 C 5.757812 -0.421875 4.773438 -3.511719 4.773438 -8.003906 Z M 1.683594 -8.003906 C 1.683594 -3.371094 4.773438 0.421875 8.707031 0.421875 C 12.640625 0.421875 15.730469 -3.371094 15.730469 -8.003906 C 15.730469 -12.640625 12.640625 -16.429688 8.707031 -16.429688 C 4.773438 -16.429688 1.683594 -12.640625 1.683594 -8.003906 Z M 1.683594 -8.003906 "/></g></g></g><g fill="#ffffff" fill-opacity="1"><g transform="translate(111.080643, 46.136112)"><g><path d="M 1.335938 0 L 8.355469 0 L 8.355469 -0.84375 L 6.882812 -0.84375 C 6.320312 -0.84375 6.109375 -1.054688 6.109375 -1.613281 L 6.109375 -6.25 C 6.109375 -7.617188 6.496094 -9.726562 7.023438 -11.234375 C 8.496094 -15.378906 10.078125 -15.589844 10.882812 -15.589844 C 11.65625 -15.589844 11.867188 -15.34375 11.867188 -14.992188 C 11.867188 -14.640625 11.410156 -14.21875 11.09375 -14.042969 C 10.53125 -13.726562 10.148438 -13.128906 10.148438 -12.5 C 10.148438 -11.585938 10.882812 -11.164062 11.726562 -11.164062 C 13.199219 -11.164062 13.691406 -12.640625 13.691406 -13.550781 C 13.691406 -14.921875 12.957031 -16.429688 11.023438 -16.429688 C 9.832031 -16.429688 8.566406 -15.660156 7.828125 -14.570312 C 7.128906 -13.550781 6.742188 -12.746094 6.25 -11.480469 L 6.109375 -11.515625 L 6.109375 -16.007812 L 1.335938 -16.007812 L 1.335938 -15.167969 L 2.808594 -15.167969 C 3.371094 -15.167969 3.582031 -14.957031 3.582031 -14.394531 L 3.582031 -1.613281 C 3.582031 -1.054688 3.371094 -0.84375 2.808594 -0.84375 L 1.335938 -0.84375 Z M 1.335938 0 "/></g></g></g><g fill="#ffffff" fill-opacity="1"><g transform="translate(125.473993, 46.136112)"><g><path d="M 4.5625 -3.617188 C 4.5625 -6.109375 5.476562 -7.441406 7.757812 -7.933594 L 10.8125 -8.601562 L 10.8125 -5.265625 C 10.179688 -3.546875 9.128906 -0.84375 6.742188 -0.84375 C 5.933594 -0.84375 4.5625 -1.160156 4.5625 -3.617188 Z M 1.613281 -3.722656 C 1.613281 -0.28125 4.214844 0.421875 6.179688 0.421875 C 8.53125 0.421875 10.113281 -1.753906 10.636719 -3.019531 L 10.8125 -2.949219 C 10.882812 -0.914062 11.832031 0.421875 13.902344 0.421875 C 16.253906 0.421875 16.710938 -2.316406 16.710938 -4.5625 L 16.078125 -4.5625 C 16.078125 -2.84375 15.695312 -1.054688 14.429688 -1.054688 C 13.65625 -1.054688 13.339844 -1.648438 13.339844 -2.808594 L 13.339844 -11.445312 C 13.339844 -15.167969 10.320312 -16.429688 7.652344 -16.429688 C 5.335938 -16.429688 2.738281 -15.027344 2.738281 -12.289062 C 2.738281 -10.671875 3.863281 -9.972656 4.773438 -9.972656 C 5.546875 -9.972656 6.320312 -10.285156 6.320312 -11.339844 C 6.320312 -12.148438 5.828125 -12.5 5.019531 -12.710938 C 4.808594 -12.746094 4.5625 -12.921875 4.492188 -13.058594 C 4.386719 -13.234375 4.386719 -13.375 4.386719 -13.585938 C 4.386719 -14.640625 5.96875 -15.589844 7.546875 -15.589844 C 9.410156 -15.589844 10.8125 -14.78125 10.8125 -12.324219 L 10.8125 -9.339844 L 7.582031 -8.742188 C 5.195312 -8.285156 1.613281 -7.582031 1.613281 -3.722656 Z M 1.613281 -3.722656 "/></g></g></g><g fill="#ffffff" fill-opacity="1"><g transform="translate(143.02685, 46.136112)"><g><path d="M 4.773438 -8.003906 C 4.773438 -12.359375 5.371094 -15.589844 7.792969 -15.589844 C 10.007812 -15.589844 12.078125 -12.429688 12.078125 -9.199219 L 12.078125 -5.933594 C 12.078125 -3.300781 10.496094 -0.421875 7.792969 -0.421875 C 5.371094 -0.421875 4.773438 -3.652344 4.773438 -8.003906 Z M 1.683594 -8.003906 C 1.683594 -3.371094 4.074219 0.421875 7.863281 0.421875 C 9.550781 0.421875 11.09375 -0.632812 11.902344 -1.578125 L 12.078125 -1.472656 L 12.078125 0 L 17.203125 0 L 17.203125 -0.84375 L 15.378906 -0.84375 C 14.816406 -0.84375 14.605469 -1.054688 14.605469 -1.613281 L 14.605469 -24.996094 L 8.777344 -24.996094 L 8.777344 -24.15625 L 11.304688 -24.15625 C 11.867188 -24.15625 12.078125 -23.945312 12.078125 -23.382812 L 12.078125 -13.761719 L 11.867188 -13.691406 C 10.988281 -15.167969 9.339844 -16.429688 7.722656 -16.429688 C 3.933594 -16.429688 1.683594 -12.640625 1.683594 -8.003906 Z M 1.683594 -8.003906 "/></g></g></g><g fill="#ffffff" fill-opacity="1"><g transform="translate(161.352034, 46.136112)"><g/></g></g><g fill="#ffffff" fill-opacity="1"><g transform="translate(171.181634, 46.136112)"><g><path d="M 9.339844 -8.636719 L 12.886719 -19.273438 L 16.535156 -8.636719 Z M 1.613281 0 L 11.234375 0 L 11.234375 -1.125 L 9.375 -1.125 C 7.933594 -1.125 7.582031 -2.210938 7.582031 -2.984375 C 7.582031 -3.582031 7.828125 -4.386719 8.074219 -5.089844 L 8.882812 -7.371094 L 16.992188 -7.371094 L 18.574219 -2.773438 C 18.679688 -2.527344 18.714844 -2.210938 18.714844 -2 C 18.714844 -1.542969 18.1875 -1.125 17.484375 -1.125 L 15.167969 -1.125 L 15.167969 0 L 26.050781 0 L 26.050781 -1.125 L 24.085938 -1.125 C 23.136719 -1.125 22.46875 -1.441406 21.976562 -2.667969 L 14.359375 -24.996094 L 13.410156 -24.996094 L 5.863281 -3.6875 C 5.441406 -2.5625 4.703125 -1.125 2.914062 -1.125 L 1.613281 -1.125 Z M 1.613281 0 "/></g></g></g><g fill="#ffffff" fill-opacity="1"><g transform="translate(198.002404, 46.136112)"><g><path d="M 2.738281 -1.753906 C 2.738281 -0.492188 3.652344 0.421875 4.914062 0.421875 C 6.179688 0.421875 7.09375 -0.492188 7.09375 -1.753906 C 7.09375 -3.019531 6.179688 -3.933594 4.914062 -3.933594 C 3.652344 -3.933594 2.738281 -3.019531 2.738281 -1.753906 Z M 2.738281 -1.753906 "/></g></g></g><g fill="#ffffff" fill-opacity="1"><g transform="translate(71.83309, 94.670401)"><g><path d="M 2.175781 0 L 10.53125 0 L 10.53125 -1.125 L 9.269531 -1.125 C 7.96875 -1.125 7.058594 -2.175781 7.058594 -3.933594 L 7.058594 -21.835938 L 7.265625 -21.835938 L 13.972656 0.421875 L 14.816406 0.421875 L 21.242188 -22.785156 L 21.242188 -2.070312 C 21.242188 -1.441406 20.960938 -1.125 20.292969 -1.125 L 17.765625 -1.125 L 17.765625 0 L 27.945312 0 L 27.945312 -1.125 L 25.417969 -1.125 C 24.75 -1.125 24.472656 -1.441406 24.472656 -2.070312 L 24.472656 -22.925781 C 24.472656 -23.59375 24.75 -23.875 25.417969 -23.875 L 27.945312 -23.875 L 27.945312 -24.996094 L 20.679688 -24.996094 L 15.34375 -5.652344 L 9.621094 -24.996094 L 2.175781 -24.996094 L 2.175781 -23.875 L 4.703125 -23.875 C 5.371094 -23.875 5.652344 -23.59375 5.652344 -22.925781 L 5.652344 -3.933594 C 5.652344 -2.175781 4.738281 -1.125 3.441406 -1.125 L 2.175781 -1.125 Z M 2.175781 0 "/></g></g></g><g fill="#ffffff" fill-opacity="1"><g transform="translate(101.251682, 94.670401)"><g><path d="M 4.773438 -8.003906 C 4.773438 -12.5 5.757812 -15.589844 8.707031 -15.589844 C 11.65625 -15.589844 12.640625 -12.5 12.640625 -8.003906 C 12.640625 -3.511719 11.65625 -0.421875 8.707031 -0.421875 C 5.757812 -0.421875 4.773438 -3.511719 4.773438 -8.003906 Z M 1.683594 -8.003906 C 1.683594 -3.371094 4.773438 0.421875 8.707031 0.421875 C 12.640625 0.421875 15.730469 -3.371094 15.730469 -8.003906 C 15.730469 -12.640625 12.640625 -16.429688 8.707031 -16.429688 C 4.773438 -16.429688 1.683594 -12.640625 1.683594 -8.003906 Z M 1.683594 -8.003906 "/></g></g></g><g fill="#ffffff" fill-opacity="1"><g transform="translate(118.664126, 94.670401)"><g><path d="M 0.984375 0 L 8.003906 0 L 8.003906 -0.84375 L 6.882812 -0.84375 C 6.320312 -0.84375 6.109375 -1.054688 6.109375 -1.613281 L 6.109375 -5.757812 L 7.722656 -7.722656 L 11.164062 -2.808594 C 11.445312 -2.386719 11.621094 -2.105469 11.621094 -1.542969 C 11.621094 -0.984375 11.234375 -0.84375 10.671875 -0.84375 L 9.761719 -0.84375 L 9.761719 0 L 17.203125 0 L 17.203125 -0.84375 L 16.5 -0.84375 C 15.660156 -0.84375 15.34375 -1.300781 14.886719 -1.964844 L 9.410156 -9.761719 L 12.078125 -13.027344 C 13.304688 -14.535156 14.148438 -15.167969 15.449219 -15.167969 L 16.570312 -15.167969 L 16.570312 -16.007812 L 9.410156 -16.007812 L 9.410156 -15.167969 L 10.320312 -15.167969 C 10.988281 -15.167969 11.515625 -14.886719 11.515625 -14.253906 C 11.515625 -13.726562 11.339844 -13.480469 10.882812 -12.957031 L 6.109375 -7.128906 L 6.109375 -24.996094 L 0.984375 -24.996094 L 0.984375 -24.15625 L 2.808594 -24.15625 C 3.371094 -24.15625 3.582031 -23.945312 3.582031 -23.382812 L 3.582031 -1.613281 C 3.582031 -1.054688 3.371094 -0.84375 2.808594 -0.84375 L 0.984375 -0.84375 Z M 0.984375 0 "/></g></g></g><g fill="#ffffff" fill-opacity="1"><g transform="translate(136.919104, 94.670401)"><g><path d="M 0.984375 0 L 8.496094 0 L 8.496094 -0.84375 L 7.023438 -0.84375 C 6.460938 -0.84375 6.25 -1.054688 6.25 -1.613281 L 6.25 -8.917969 C 6.25 -12.605469 8.988281 -15.589844 10.953125 -15.589844 C 12.78125 -15.589844 13.199219 -13.585938 13.199219 -11.902344 L 13.199219 -1.613281 C 13.199219 -1.054688 12.992188 -0.84375 12.429688 -0.84375 L 10.953125 -0.84375 L 10.953125 0 L 17.976562 0 L 17.976562 -0.84375 L 16.5 -0.84375 C 15.941406 -0.84375 15.730469 -1.054688 15.730469 -1.613281 L 15.730469 -11.199219 C 15.730469 -12.429688 15.378906 -14.5 14.113281 -15.519531 C 13.445312 -16.078125 12.675781 -16.429688 11.269531 -16.429688 C 9.410156 -16.429688 7.617188 -15.097656 6.390625 -12.746094 L 6.25 -12.78125 L 6.25 -24.996094 L 0.984375 -24.996094 L 0.984375 -24.15625 L 2.949219 -24.15625 C 3.511719 -24.15625 3.722656 -23.945312 3.722656 -23.382812 L 3.722656 -1.613281 C 3.722656 -1.054688 3.511719 -0.84375 2.949219 -0.84375 L 0.984375 -0.84375 Z M 0.984375 0 "/></g></g></g><g fill="#ffffff" fill-opacity="1"><g transform="translate(156.016617, 94.670401)"><g><path d="M 0.984375 -15.027344 L 3.582031 -15.027344 L 3.582031 -3.757812 C 3.582031 -1.125 5.195312 0.421875 7.234375 0.421875 C 11.058594 0.421875 11.09375 -3.476562 11.09375 -5.335938 L 10.460938 -5.335938 C 10.460938 -3.300781 10.042969 -1.125 7.96875 -1.125 C 6.460938 -1.125 6.109375 -2.421875 6.109375 -3.582031 L 6.109375 -15.027344 L 10.460938 -15.027344 L 10.460938 -16.007812 L 6.109375 -16.007812 L 6.109375 -22.75 L 5.125 -22.75 L 5.125 -21.488281 C 5.125 -18.992188 4.003906 -16.007812 1.753906 -16.007812 L 0.984375 -16.007812 Z M 0.984375 -15.027344 "/></g></g></g><g fill="#ffffff" fill-opacity="1"><g transform="translate(168.303625, 94.670401)"><g><path d="M 4.5625 -3.617188 C 4.5625 -6.109375 5.476562 -7.441406 7.757812 -7.933594 L 10.8125 -8.601562 L 10.8125 -5.265625 C 10.179688 -3.546875 9.128906 -0.84375 6.742188 -0.84375 C 5.933594 -0.84375 4.5625 -1.160156 4.5625 -3.617188 Z M 1.613281 -3.722656 C 1.613281 -0.28125 4.214844 0.421875 6.179688 0.421875 C 8.53125 0.421875 10.113281 -1.753906 10.636719 -3.019531 L 10.8125 -2.949219 C 10.882812 -0.914062 11.832031 0.421875 13.902344 0.421875 C 16.253906 0.421875 16.710938 -2.316406 16.710938 -4.5625 L 16.078125 -4.5625 C 16.078125 -2.84375 15.695312 -1.054688 14.429688 -1.054688 C 13.65625 -1.054688 13.339844 -1.648438 13.339844 -2.808594 L 13.339844 -11.445312 C 13.339844 -15.167969 10.320312 -16.429688 7.652344 -16.429688 C 5.335938 -16.429688 2.738281 -15.027344 2.738281 -12.289062 C 2.738281 -10.671875 3.863281 -9.972656 4.773438 -9.972656 C 5.546875 -9.972656 6.320312 -10.285156 6.320312 -11.339844 C 6.320312 -12.148438 5.828125 -12.5 5.019531 -12.710938 C 4.808594 -12.746094 4.5625 -12.921875 4.492188 -13.058594 C 4.386719 -13.234375 4.386719 -13.375 4.386719 -13.585938 C 4.386719 -14.640625 5.96875 -15.589844 7.546875 -15.589844 C 9.410156 -15.589844 10.8125 -14.78125 10.8125 -12.324219 L 10.8125 -9.339844 L 7.582031 -8.742188 C 5.195312 -8.285156 1.613281 -7.582031 1.613281 -3.722656 Z M 1.613281 -3.722656 "/></g></g></g><g fill="#ffffff" fill-opacity="1"><g transform="translate(185.856482, 94.670401)"><g><path d="M 1.335938 0 L 8.355469 0 L 8.355469 -0.84375 L 6.882812 -0.84375 C 6.320312 -0.84375 6.109375 -1.054688 6.109375 -1.613281 L 6.109375 -6.25 C 6.109375 -7.617188 6.496094 -9.726562 7.023438 -11.234375 C 8.496094 -15.378906 10.078125 -15.589844 10.882812 -15.589844 C 11.65625 -15.589844 11.867188 -15.34375 11.867188 -14.992188 C 11.867188 -14.640625 11.410156 -14.21875 11.09375 -14.042969 C 10.53125 -13.726562 10.148438 -13.128906 10.148438 -12.5 C 10.148438 -11.585938 10.882812 -11.164062 11.726562 -11.164062 C 13.199219 -11.164062 13.691406 -12.640625 13.691406 -13.550781 C 13.691406 -14.921875 12.957031 -16.429688 11.023438 -16.429688 C 9.832031 -16.429688 8.566406 -15.660156 7.828125 -14.570312 C 7.128906 -13.550781 6.742188 -12.746094 6.25 -11.480469 L 6.109375 -11.515625 L 6.109375 -16.007812 L 1.335938 -16.007812 L 1.335938 -15.167969 L 2.808594 -15.167969 C 3.371094 -15.167969 3.582031 -14.957031 3.582031 -14.394531 L 3.582031 -1.613281 C 3.582031 -1.054688 3.371094 -0.84375 2.808594 -0.84375 L 1.335938 -0.84375 Z M 1.335938 0 "/></g></g></g><g fill="#ffffff" fill-opacity="1"><g transform="translate(439.367538, 67.231748)"><g><path d="M 3.089844 -10.742188 L 3.335938 0.351562 L 4.144531 0.351562 L 4.285156 -1.054688 C 4.386719 -1.824219 4.597656 -2.5625 5.195312 -2.5625 C 5.441406 -2.5625 6.074219 -2.105469 6.953125 -1.441406 C 7.933594 -0.703125 10.078125 0.632812 12.324219 0.632812 C 17.695312 0.632812 19.941406 -3.125 19.941406 -6.601562 C 19.941406 -8.953125 18.574219 -11.65625 15.238281 -12.992188 L 8.460938 -15.695312 C 6.601562 -16.429688 5.265625 -17.414062 5.265625 -19.660156 C 5.265625 -22.820312 7.269531 -24.507812 9.761719 -24.507812 C 13.199219 -24.507812 16.570312 -20.996094 17.695312 -15.871094 L 18.539062 -15.871094 L 18.1875 -24.996094 L 17.34375 -24.996094 L 17.203125 -23.734375 C 17.132812 -23.242188 16.957031 -22.890625 16.5 -22.890625 C 16.078125 -22.890625 15.625 -23.207031 15.167969 -23.523438 C 14.464844 -24.050781 12.359375 -25.628906 10.042969 -25.628906 C 6.53125 -25.628906 3.160156 -23.875 3.160156 -19.027344 C 3.160156 -15.800781 4.773438 -13.375 8.566406 -11.867188 L 13.902344 -9.726562 C 16.078125 -8.847656 17.835938 -7.792969 17.835938 -5.265625 C 17.835938 -3.019531 16.535156 -0.492188 12.324219 -0.492188 C 8.320312 -0.492188 4.386719 -5.476562 3.933594 -10.742188 Z M 3.089844 -10.742188 "/></g></g></g><g fill="#ffffff" fill-opacity="1"><g transform="translate(461.135338, 67.231748)"><g><path d="M 2.808594 -22.1875 C 2.808594 -21.136719 3.582031 -20.363281 4.632812 -20.363281 C 5.6875 -20.363281 6.460938 -21.136719 6.460938 -22.1875 C 6.460938 -23.242188 5.6875 -24.015625 4.632812 -24.015625 C 3.582031 -24.015625 2.808594 -23.242188 2.808594 -22.1875 Z M 1.335938 0 L 8.355469 0 L 8.355469 -0.84375 L 6.882812 -0.84375 C 6.320312 -0.84375 6.109375 -1.054688 6.109375 -1.613281 L 6.109375 -16.011719 L 1.335938 -16.011719 L 1.335938 -15.167969 L 2.808594 -15.167969 C 3.371094 -15.167969 3.582031 -14.957031 3.582031 -14.394531 L 3.582031 -1.613281 C 3.582031 -1.054688 3.371094 -0.84375 2.808594 -0.84375 L 1.335938 -0.84375 Z M 1.335938 0 "/></g></g></g><g fill="#ffffff" fill-opacity="1"><g transform="translate(470.614867, 67.231748)"><g><path d="M 1.335938 0 L 8.355469 0 L 8.355469 -0.84375 L 6.882812 -0.84375 C 6.320312 -0.84375 6.109375 -1.054688 6.109375 -1.613281 L 6.109375 -8.917969 C 6.109375 -12.605469 8.847656 -15.589844 10.8125 -15.589844 C 12.640625 -15.589844 13.0625 -13.585938 13.0625 -11.902344 L 13.0625 -1.613281 C 13.0625 -1.054688 12.851562 -0.84375 12.289062 -0.84375 L 10.8125 -0.84375 L 10.8125 0 L 17.835938 0 L 17.835938 -0.84375 L 16.359375 -0.84375 C 15.800781 -0.84375 15.589844 -1.054688 15.589844 -1.613281 L 15.589844 -11.199219 C 15.589844 -12.429688 15.238281 -14.5 13.972656 -15.519531 C 13.304688 -16.078125 12.535156 -16.429688 11.128906 -16.429688 C 9.269531 -16.429688 7.476562 -15.097656 6.25 -12.746094 L 6.109375 -12.78125 L 6.109375 -16.011719 L 1.335938 -16.011719 L 1.335938 -15.167969 L 2.808594 -15.167969 C 3.371094 -15.167969 3.582031 -14.957031 3.582031 -14.394531 L 3.582031 -1.613281 C 3.582031 -1.054688 3.371094 -0.84375 2.808594 -0.84375 L 1.335938 -0.84375 Z M 1.335938 0 "/></g></g></g><g fill="#ffffff" fill-opacity="1"><g transform="translate(489.573926, 67.231748)"><g><path d="M 1.683594 -8.003906 C 1.683594 -3.371094 4.421875 0.421875 8.566406 0.421875 C 12.253906 0.421875 13.9375 -2.84375 14.113281 -5.476562 L 13.269531 -5.476562 C 12.992188 -3.195312 11.691406 -0.421875 8.566406 -0.421875 C 5.335938 -0.421875 4.773438 -3.511719 4.773438 -8.003906 C 4.773438 -12.5 5.371094 -15.589844 8.566406 -15.589844 C 11.09375 -15.589844 12.007812 -14.007812 12.007812 -13.304688 C 12.007812 -13.027344 11.867188 -12.816406 11.445312 -12.675781 C 10.882812 -12.5 10.25 -11.972656 10.25 -11.058594 C 10.25 -10.21875 10.953125 -9.515625 11.902344 -9.515625 C 12.921875 -9.515625 13.832031 -10.285156 13.832031 -11.832031 C 13.832031 -13.9375 11.972656 -16.429688 8.566406 -16.429688 C 4.457031 -16.429688 1.683594 -12.640625 1.683594 -8.003906 Z M 1.683594 -8.003906 "/></g></g></g><g fill="#ffffff" fill-opacity="1"><g transform="translate(504.881613, 67.231748)"><g><path d="M 4.773438 -8.847656 C 4.773438 -11.9375 5.617188 -15.589844 8.144531 -15.589844 C 10.671875 -15.589844 11.445312 -11.9375 11.445312 -8.847656 Z M 1.683594 -8.003906 C 1.683594 -3.089844 4.421875 0.421875 8.707031 0.421875 C 12.113281 0.421875 13.867188 -2.210938 14.113281 -5.476562 L 13.269531 -5.476562 C 12.78125 -1.335938 10.460938 -0.421875 8.777344 -0.421875 C 5.546875 -0.421875 4.773438 -3.582031 4.773438 -7.863281 L 14.464844 -7.863281 C 14.464844 -11.65625 12.640625 -16.429688 8.285156 -16.429688 C 4.285156 -16.429688 1.683594 -12.289062 1.683594 -8.003906 Z M 1.683594 -8.003906 "/></g></g></g><g fill="#ffffff" fill-opacity="1"><g transform="translate(521.031929, 67.231748)"><g/></g></g><g fill="#ffffff" fill-opacity="1"><g transform="translate(530.862559, 67.231748)"><g><path d="M 2.597656 -18.292969 C 2.597656 -15.765625 4.039062 -14.148438 5.933594 -14.148438 C 7.09375 -14.148438 7.722656 -14.886719 7.722656 -15.730469 C 7.722656 -16.710938 7.09375 -17.625 5.511719 -17.871094 C 4.738281 -18.011719 4.074219 -18.398438 4.074219 -19.625 C 4.074219 -21.523438 6.285156 -23.3125 8.566406 -23.3125 C 11.832031 -23.3125 13.691406 -21.242188 13.691406 -17.589844 C 13.691406 -14.570312 12.359375 -12.5 10.320312 -10.777344 L 6.953125 -7.898438 C 3.054688 -4.597656 2.914062 -1.753906 2.914062 0 L 16.605469 0 L 17.097656 -7.304688 L 16.324219 -7.304688 L 15.941406 -5.230469 C 15.695312 -3.933594 15.203125 -2.878906 13.164062 -2.878906 L 6.53125 -2.878906 C 6.003906 -2.878906 5.441406 -2.984375 5.441406 -3.722656 C 5.441406 -5.125 6.742188 -6.355469 8.496094 -7.582031 L 11.9375 -10.25 C 14.21875 -11.902344 17.414062 -14.324219 17.414062 -17.589844 C 17.414062 -21.976562 14.042969 -24.578125 9.550781 -24.578125 C 5.546875 -24.578125 2.597656 -21.910156 2.597656 -18.292969 Z M 2.597656 -18.292969 "/></g></g></g><g fill="#ffffff" fill-opacity="1"><g transform="translate(551.225989, 67.231748)"><g><path d="M 5.40625 -12.007812 C 5.40625 -16.640625 5.757812 -23.453125 10.183594 -23.453125 C 14.570312 -23.453125 14.957031 -16.640625 14.957031 -12.007812 C 14.957031 -7.40625 14.570312 -0.5625 10.183594 -0.5625 C 5.757812 -0.5625 5.40625 -7.40625 5.40625 -12.007812 Z M 1.683594 -12.007812 C 1.683594 -5.722656 5.019531 0.5625 10.183594 0.5625 C 15.308594 0.5625 18.679688 -5.722656 18.679688 -12.007812 C 18.679688 -18.328125 15.308594 -24.578125 10.183594 -24.578125 C 5.019531 -24.578125 1.683594 -18.328125 1.683594 -12.007812 Z M 1.683594 -12.007812 "/></g></g></g><g fill="#ffffff" fill-opacity="1"><g transform="translate(571.589418, 67.231748)"><g><path d="M 5.40625 -12.007812 C 5.40625 -16.640625 5.757812 -23.453125 10.183594 -23.453125 C 14.570312 -23.453125 14.957031 -16.640625 14.957031 -12.007812 C 14.957031 -7.40625 14.570312 -0.5625 10.183594 -0.5625 C 5.757812 -0.5625 5.40625 -7.40625 5.40625 -12.007812 Z M 1.683594 -12.007812 C 1.683594 -5.722656 5.019531 0.5625 10.183594 0.5625 C 15.308594 0.5625 18.679688 -5.722656 18.679688 -12.007812 C 18.679688 -18.328125 15.308594 -24.578125 10.183594 -24.578125 C 5.019531 -24.578125 1.683594 -18.328125 1.683594 -12.007812 Z M 1.683594 -12.007812 "/></g></g></g><g fill="#ffffff" fill-opacity="1"><g transform="translate(591.952847, 67.231748)"><g><path d="M 3.019531 -4.597656 C 3.019531 -1.71875 5.40625 0.5625 9.410156 0.5625 C 14.113281 0.5625 18.046875 -3.230469 18.046875 -8.496094 C 18.046875 -13.132812 15.273438 -16.429688 10.25 -16.429688 C 8.566406 -16.429688 6.847656 -15.695312 5.6875 -14.359375 L 5.476562 -14.429688 L 5.476562 -21.136719 C 6.425781 -20.644531 7.269531 -20.433594 9.058594 -20.433594 C 11.9375 -20.433594 14.464844 -22.011719 16.078125 -24.085938 L 15.660156 -24.578125 C 13.621094 -23.382812 11.867188 -23.101562 9.796875 -23.101562 C 8.179688 -23.101562 5.96875 -23.734375 4.984375 -24.578125 L 4.214844 -23.980469 L 4.214844 -11.867188 C 4.214844 -11.164062 4.457031 -10.988281 4.773438 -10.988281 C 5.230469 -10.988281 5.476562 -11.375 5.476562 -11.867188 C 5.476562 -12.359375 5.757812 -13.269531 6.285156 -13.796875 C 7.335938 -14.851562 8.214844 -15.167969 9.550781 -15.167969 C 13.0625 -15.167969 14.324219 -12.570312 14.324219 -8.496094 C 14.324219 -4.457031 13.132812 -0.5625 9.410156 -0.5625 C 6.460938 -0.5625 5.546875 -1.542969 5.546875 -2.949219 C 5.546875 -3.582031 6.074219 -3.863281 6.601562 -4.109375 C 7.304688 -4.421875 7.863281 -5.125 7.863281 -5.96875 C 7.863281 -7.058594 7.164062 -8.003906 5.828125 -8.003906 C 4.492188 -8.003906 3.019531 -6.953125 3.019531 -4.597656 Z M 3.019531 -4.597656 "/></g></g></g></svg>